<mxfile host="app.diagrams.net" agent="Mozilla/5.0 (Windows NT 10.0; Win64; x64; rv:135.0) Gecko/20100101 Firefox/135.0" version="26.0.16">
  <diagram name="PÃ¡gina-1" id="-9hC61rEFEpsPfBJ4xYI">
    <mxGraphModel dx="2766" dy="2809" grid="1" gridSize="10" guides="1" tooltips="1" connect="1" arrows="1" fold="1" page="1" pageScale="1" pageWidth="827" pageHeight="1169" math="0" shadow="0">
      <root>
        <mxCell id="0" />
        <mxCell id="1" parent="0" />
        <mxCell id="5GMbfHlThRFrNZICtcZY-6" style="edgeStyle=orthogonalEdgeStyle;rounded=0;orthogonalLoop=1;jettySize=auto;html=1;" parent="1" edge="1">
          <mxGeometry relative="1" as="geometry">
            <mxPoint x="230" y="-5" as="targetPoint" />
            <mxPoint x="210" y="-220" as="sourcePoint" />
            <Array as="points">
              <mxPoint x="231" y="-220" />
            </Array>
          </mxGeometry>
        </mxCell>
        <mxCell id="5GMbfHlThRFrNZICtcZY-2" value="&lt;p style=&quot;margin:0px;margin-top:4px;text-align:center;&quot;&gt;&lt;b&gt;Class Casilla&lt;/b&gt;&lt;/p&gt;&lt;hr size=&quot;1&quot; style=&quot;border-style:solid;&quot;&gt;&lt;div&gt;&amp;nbsp;+ ID: String&lt;/div&gt;&lt;div&gt;&amp;nbsp;+&amp;nbsp;Etiqueta: String&lt;/div&gt;&lt;div&gt;&amp;nbsp;+&amp;nbsp;posFila: int &lt;/div&gt;&lt;div&gt;&amp;nbsp;+&amp;nbsp;posColumna: int&lt;/div&gt;&lt;div&gt;&amp;nbsp;+&amp;nbsp;mina: boolean &lt;/div&gt;&lt;div&gt;&amp;nbsp;+&amp;nbsp;numMinasAlrededor: int&lt;/div&gt;&lt;div&gt;&amp;nbsp;+ abierta: boolean&lt;/div&gt;&lt;div&gt;&amp;nbsp;+ lista: ListaAdyacencia &lt;br&gt;&lt;/div&gt;&lt;div&gt;&amp;nbsp;+&amp;nbsp;bandera: boolean &lt;br&gt; &lt;/div&gt;&lt;hr size=&quot;1&quot; style=&quot;border-style:solid;&quot;&gt;&lt;p style=&quot;margin:0px;margin-left:4px;&quot;&gt;+ Casilla(posFila: int,&amp;nbsp;posColumna: int ):&lt;/p&gt;&lt;p style=&quot;margin:0px;margin-left:4px;&quot;&gt;+ getEtiqueta(): String&lt;/p&gt;&lt;p style=&quot;margin:0px;margin-left:4px;&quot;&gt;+ setEtiqueta(Etiqueta:&amp;nbsp;String ): void&lt;/p&gt;&lt;p style=&quot;margin:0px;margin-left:4px;&quot;&gt;+ isBandera(): boolean&lt;/p&gt;&lt;p style=&quot;margin:0px;margin-left:4px;&quot;&gt;+ setBandera(bandera:&amp;nbsp;boolean ): void&lt;/p&gt;&lt;p style=&quot;margin:0px;margin-left:4px;&quot;&gt;+ getID(): String&lt;/p&gt;&lt;p style=&quot;margin:0px;margin-left:4px;&quot;&gt;+ setID(ID:&amp;nbsp;String ): void&lt;/p&gt;&lt;p style=&quot;margin:0px;margin-left:4px;&quot;&gt;+ isAbierta(): boolean&lt;/p&gt;&lt;p style=&quot;margin:0px;margin-left:4px;&quot;&gt;+ setAbierta(abierta:&amp;nbsp;boolean): void&lt;/p&gt;&lt;p style=&quot;margin:0px;margin-left:4px;&quot;&gt;+ getNumMinasAlrededor(): int&lt;/p&gt;&lt;p style=&quot;margin:0px;margin-left:4px;&quot;&gt;+ setNumMinasAlrededor(numMinasAlrededor: int): void&lt;/p&gt;&lt;p style=&quot;margin:0px;margin-left:4px;&quot;&gt;+ getposFila(): int&lt;/p&gt;&lt;p style=&quot;margin:0px;margin-left:4px;&quot;&gt;+ setposFila(posFila: int): void&lt;/p&gt;&lt;p style=&quot;margin:0px;margin-left:4px;&quot;&gt;+ getposColumna(): int&lt;/p&gt;&lt;p style=&quot;margin:0px;margin-left:4px;&quot;&gt;+ setposColumna(posColumna:&amp;nbsp;int): void&lt;/p&gt;&lt;p style=&quot;margin:0px;margin-left:4px;&quot;&gt;+ isMina(): boolean&lt;/p&gt;&lt;p style=&quot;margin:0px;margin-left:4px;&quot;&gt;+ setMina(mina:&amp;nbsp;boolean): void&lt;/p&gt;&lt;p style=&quot;margin:0px;margin-left:4px;&quot;&gt;&lt;br&gt;&lt;/p&gt;&lt;p style=&quot;margin:0px;margin-left:4px;&quot;&gt;&lt;br&gt;&lt;/p&gt;&lt;p style=&quot;margin:0px;margin-left:4px;&quot;&gt;&lt;br&gt;&lt;/p&gt;&lt;p style=&quot;margin:0px;margin-left:4px;&quot;&gt;&lt;br&gt;&lt;/p&gt;&lt;p style=&quot;margin:0px;margin-left:4px;&quot;&gt;&lt;br&gt;&lt;/p&gt;&lt;p style=&quot;margin:0px;margin-left:4px;&quot;&gt;&lt;br&gt;&lt;/p&gt;&lt;p style=&quot;margin:0px;margin-left:4px;&quot;&gt;&lt;br&gt;&lt;/p&gt;&lt;p style=&quot;margin:0px;margin-left:4px;&quot;&gt;&amp;nbsp;&amp;nbsp;&amp;nbsp; &lt;br&gt;&lt;/p&gt;" style="verticalAlign=top;align=left;overflow=fill;html=1;whiteSpace=wrap;" parent="1" vertex="1">
          <mxGeometry x="1040" y="45" width="350" height="430" as="geometry" />
        </mxCell>
        <mxCell id="5GMbfHlThRFrNZICtcZY-4" value="&lt;p style=&quot;margin:0px;margin-top:4px;text-align:center;&quot;&gt;&lt;b&gt;Class Ventana1&lt;/b&gt;&lt;/p&gt;&lt;hr size=&quot;1&quot; style=&quot;border-style:solid;&quot;&gt;&lt;p style=&quot;margin:0px;margin-left:4px;&quot;&gt;+ clip: Clip &lt;br&gt;&lt;/p&gt;&lt;p style=&quot;margin:0px;margin-left:4px;&quot;&gt;+ JPanel: JPanel&lt;br&gt;+ iniciar: JButton&lt;/p&gt;&lt;p style=&quot;margin:0px;margin-left:4px;&quot;&gt;+&amp;nbsp;on:&amp;nbsp;JToggleButton&lt;br&gt;+ pantalla: JLabel&lt;/p&gt;&lt;p style=&quot;margin:0px;margin-left:4px;&quot;&gt;+ funciones: Funciones &lt;br&gt;&lt;/p&gt;&lt;hr size=&quot;1&quot; style=&quot;border-style:solid;&quot;&gt;&lt;p style=&quot;margin:0px;margin-left:4px;&quot;&gt;+ iniciarActionPerformed(evt: java.awt.event.ActionEvent): void&lt;/p&gt;&lt;p style=&quot;margin:0px;margin-left:4px;&quot;&gt;+ onActionPerformed(evt: java.awt.event.ActionEvent): void&lt;/p&gt;" style="verticalAlign=top;align=left;overflow=fill;html=1;whiteSpace=wrap;" parent="1" vertex="1">
          <mxGeometry x="720" y="1290" width="370" height="180" as="geometry" />
        </mxCell>
        <mxCell id="5GMbfHlThRFrNZICtcZY-5" value="&lt;p style=&quot;margin:0px;margin-top:4px;text-align:center;&quot;&gt;&lt;b&gt;Class Ventana2&lt;/b&gt;&lt;/p&gt;&lt;hr size=&quot;1&quot; style=&quot;border-style:solid;&quot;&gt;&lt;p style=&quot;margin:0px;margin-left:4px;&quot;&gt;+ botonesTablero: JButton[ ][ ] &lt;br&gt;&lt;/p&gt;&lt;p style=&quot;margin:0px;margin-left:4px;&quot;&gt;+ tableroBuscaminas: Tablero&lt;/p&gt;&lt;p style=&quot;margin:0px;margin-left:4px;&quot;&gt;+ colocarbandera: boolean&lt;/p&gt;&lt;p style=&quot;margin:0px;margin-left:4px;&quot;&gt;+ colocarpala: boolean&lt;/p&gt;&lt;p style=&quot;margin:0px;margin-left:4px;&quot;&gt;+ juegoTerminado: boolean&lt;/p&gt;&lt;p style=&quot;margin:0px;margin-left:4px;&quot;&gt;+ casillaSeleccionada: String&lt;/p&gt;&lt;p style=&quot;margin:0px;margin-left:4px;&quot;&gt;+ startNode: Node&lt;/p&gt;&lt;p style=&quot;margin:0px;margin-left:4px;&quot;&gt;+ contador: int&lt;/p&gt;&lt;p style=&quot;margin:0px;margin-left:4px;&quot;&gt;+ v1: Ventana1&lt;/p&gt;&lt;p style=&quot;margin:0px;margin-left:4px;&quot;&gt;+ funciones: Funciones &lt;br&gt;&lt;/p&gt;&lt;p style=&quot;margin:0px;margin-left:4px;&quot;&gt;+ GrupoBotones: ButtonGroup&lt;/p&gt;&lt;p style=&quot;margin:0px;margin-left:4px;&quot;&gt;+ SeleccionadoButton: JButton&lt;br&gt;+ SeleccionadoText: JLabel&lt;br&gt;+ arbol: JButton&lt;br&gt;+ bandera: JButton&lt;br&gt;+&amp;nbsp;banderas: JLabel&lt;br&gt;+ bienvenida: JButton&lt;br&gt;+ botonbfs: JRadioButton&lt;/p&gt;&lt;p style=&quot;margin:0px;margin-left:4px;&quot;&gt;+ botondfs: JRadioButton&amp;nbsp;&lt;/p&gt;&lt;p style=&quot;margin:0px;margin-left:4px;&quot;&gt;+ c: JTextField&amp;nbsp;&lt;/p&gt;&lt;p style=&quot;margin:0px;margin-left:4px;&quot;&gt;+ cargar: JButton&amp;nbsp;&lt;/p&gt;&lt;p style=&quot;margin:0px;margin-left:4px;&quot;&gt;+ casillaText: JLabel&amp;nbsp;&lt;/p&gt;&lt;p style=&quot;margin:0px;margin-left:4px;&quot;&gt;+ crear: JButton&amp;nbsp;&lt;/p&gt;&lt;p style=&quot;margin:0px;margin-left:4px;&quot;&gt;+ f: JTextField&amp;nbsp;&lt;/p&gt;&lt;p style=&quot;margin:0px;margin-left:4px;&quot;&gt;+ guardar: JButton&amp;nbsp;&lt;/p&gt;&lt;p style=&quot;margin:0px;margin-left:4px;&quot;&gt;+ informacionarbol: JButton&amp;nbsp;&lt;/p&gt;&lt;p style=&quot;margin:0px;margin-left:4px;&quot;&gt;+ informacionbandera: JButton&amp;nbsp;&lt;/p&gt;&lt;p style=&quot;margin:0px;margin-left:4px;&quot;&gt;+ informacionpala: JButton&amp;nbsp;&lt;/p&gt;&lt;p style=&quot;margin:0px;margin-left:4px;&quot;&gt;+ jLabel1: JLabel&amp;nbsp;&lt;/p&gt;&lt;p style=&quot;margin:0px;margin-left:4px;&quot;&gt;+ jLabel10: JLabel&amp;nbsp;&lt;/p&gt;&lt;p style=&quot;margin:0px;margin-left:4px;&quot;&gt;+ jLabel2: JLabel&amp;nbsp;&lt;/p&gt;&lt;p style=&quot;margin:0px;margin-left:4px;&quot;&gt;+ jLabel3: JLabel&amp;nbsp;&lt;/p&gt;&lt;p style=&quot;margin:0px;margin-left:4px;&quot;&gt;+ jLabel5: JLabel&amp;nbsp;&lt;/p&gt;&lt;p style=&quot;margin:0px;margin-left:4px;&quot;&gt;+ jLabel6: JLabel&amp;nbsp;&lt;/p&gt;&lt;p style=&quot;margin:0px;margin-left:4px;&quot;&gt;+ jLabel7: JLabel&amp;nbsp;&lt;/p&gt;&lt;p style=&quot;margin:0px;margin-left:4px;&quot;&gt;+ jLabel8: JLabel&amp;nbsp;&lt;/p&gt;&lt;p style=&quot;margin:0px;margin-left:4px;&quot;&gt;+ jLabel9: JLabel&amp;nbsp;&lt;/p&gt;&lt;p style=&quot;margin:0px;margin-left:4px;&quot;&gt;+ jSeparator1: JSeparator&amp;nbsp;&lt;/p&gt;&lt;p style=&quot;margin:0px;margin-left:4px;&quot;&gt;+ jSeparator2: JSeparator&amp;nbsp;&lt;/p&gt;&lt;p style=&quot;margin:0px;margin-left:4px;&quot;&gt;+ jSeparator3: JSeparator&amp;nbsp;&lt;/p&gt;&lt;p style=&quot;margin:0px;margin-left:4px;&quot;&gt;+ m: JTextField&amp;nbsp;&lt;/p&gt;&lt;p style=&quot;margin:0px;margin-left:4px;&quot;&gt;+ on: JButton&amp;nbsp;&lt;/p&gt;&lt;p style=&quot;margin:0px;margin-left:4px;&quot;&gt;+ pala: JButton&amp;nbsp;&lt;/p&gt;&lt;p style=&quot;margin:0px;margin-left:4px;&quot;&gt;+ panelDerecha: JPanel&amp;nbsp;&lt;/p&gt;&lt;p style=&quot;margin:0px;margin-left:4px;&quot;&gt;+ panelInformativo: JPanel&amp;nbsp;&lt;/p&gt;&lt;p style=&quot;margin:0px;margin-left:4px;&quot;&gt;+ panelSuperior: JPanel&amp;nbsp;&lt;/p&gt;&lt;p style=&quot;margin:0px;margin-left:4px;&quot;&gt;+ panelTablero: JPanel&lt;/p&gt;&lt;p style=&quot;margin:0px;margin-left:4px;&quot;&gt;&lt;br&gt;&lt;/p&gt;&lt;hr size=&quot;1&quot; style=&quot;border-style:solid;&quot;&gt;&lt;p style=&quot;margin:0px;margin-left:4px;&quot;&gt;+ getCasillaSeleccionada(): String&lt;/p&gt;&lt;p style=&quot;margin:0px;margin-left:4px;&quot;&gt;+ setCasillaSeleccionada(casillaSeleccionada: String): void&lt;/p&gt;&lt;p style=&quot;margin:0px;margin-left:4px;&quot;&gt;+ descargarControles(): void&lt;/p&gt;&lt;p style=&quot;margin:0px;margin-left:4px;&quot;&gt;+ juegoNuevo(): void&lt;/p&gt;&lt;p style=&quot;margin:0px;margin-left:4px;&quot;&gt;+ configurarEventosGrafo(): void&lt;/p&gt;&lt;p style=&quot;margin:0px;margin-left:4px;&quot;&gt;+ crearTableroBuscaminas(filas: int, columnas: int,&amp;nbsp;minas: int ): void&lt;/p&gt;&lt;p style=&quot;margin:0px;margin-left:4px;&quot;&gt;+ cargarCasillas(filas: int, columnas: int): void&lt;/p&gt;&lt;p style=&quot;margin:0px;margin-left:4px;&quot;&gt;+ btnClick(e: MouseEvent): void&lt;/p&gt;&lt;div&gt;&amp;nbsp;+ onActionPerformed(evt: java.awt.event.ActionEvent): void&lt;/div&gt;&lt;div&gt;&amp;nbsp;+ crearActionPerformed(evt: java.awt.event.ActionEvent): void&lt;/div&gt;&lt;div&gt;&amp;nbsp;+ palaActionPerformed(evt: java.awt.event.ActionEvent): void&lt;/div&gt;&lt;div&gt;&amp;nbsp;+ banderaActionPerformed(evt: java.awt.event.ActionEvent): void&lt;/div&gt;&lt;div&gt;&amp;nbsp;+ cargarActionPerformed(evt: java.awt.event.ActionEvent): void&lt;/div&gt;&lt;div&gt;&amp;nbsp;+ cargarTableroBuscaminas(filas: int, columnas: int,&amp;nbsp;minas: int, tableroCargado: Casilla[][] ): void&lt;/div&gt;&lt;div&gt;&amp;nbsp;+ arbolActionPerformed(evt: java.awt.event.ActionEvent): void&lt;/div&gt;&lt;div&gt;&amp;nbsp;+ guardarActionPerformed(evt: java.awt.event.ActionEvent): void&lt;/div&gt;&lt;div&gt;&amp;nbsp;+ informacionbanderaActionPerformed(evt: java.awt.event.ActionEvent): void&lt;/div&gt;&lt;div&gt;&amp;nbsp;+ informacionpalaActionPerformed(evt: java.awt.event.ActionEvent): void&lt;/div&gt;&lt;div&gt;&amp;nbsp;+ informacionarbolActionPerformed(evt: java.awt.event.ActionEvent): void&lt;/div&gt;" style="verticalAlign=top;align=left;overflow=fill;html=1;whiteSpace=wrap;" parent="1" vertex="1">
          <mxGeometry x="1130" y="1290" width="520" height="1040" as="geometry" />
        </mxCell>
        <mxCell id="TNqC-9oh-vg7aei-fuEC-1" value="&lt;p style=&quot;margin:0px;margin-top:4px;text-align:center;&quot;&gt;&lt;b&gt;Class Funciones&lt;/b&gt;&lt;/p&gt;&lt;hr size=&quot;1&quot; style=&quot;border-style:solid;&quot;&gt;&amp;nbsp; + id: String &lt;br&gt;&amp;nbsp; + tieneMina: boolean &lt;br&gt;&amp;nbsp; + barrida: boolean &lt;br&gt;&amp;nbsp; + minasAdyacentes: int &lt;hr size=&quot;1&quot; style=&quot;border-style:solid;&quot;&gt;&lt;p style=&quot;margin:0px;margin-left:4px;&quot;&gt;+ colocarImagen(link: String, boton: JToggleButton ): void&lt;/p&gt;&lt;p style=&quot;margin:0px;margin-left:4px;&quot;&gt;+ colocarImagen(link: String, boton: JButton ): void&lt;/p&gt;&lt;p style=&quot;margin:0px;margin-left:4px;&quot;&gt;&lt;br&gt;&lt;/p&gt;&lt;p style=&quot;margin:0px;margin-left:4px;&quot;&gt;&lt;br&gt;&amp;nbsp;&amp;nbsp;&amp;nbsp; &lt;br&gt;&lt;/p&gt;" style="verticalAlign=top;align=left;overflow=fill;html=1;whiteSpace=wrap;" vertex="1" parent="1">
          <mxGeometry x="1070" y="-280" width="320" height="145" as="geometry" />
        </mxCell>
        <mxCell id="TNqC-9oh-vg7aei-fuEC-2" value="&lt;p style=&quot;margin:0px;margin-top:4px;text-align:center;&quot;&gt;&lt;b&gt;Class Tablero&lt;/b&gt;&lt;/p&gt;&lt;hr size=&quot;1&quot; style=&quot;border-style:solid;&quot;&gt;&amp;nbsp; + grafo: Grafo&lt;br&gt;&amp;nbsp;&lt;hr size=&quot;1&quot; style=&quot;border-style:solid;&quot;&gt;&lt;p style=&quot;margin:0px;margin-left:4px;&quot;&gt;+ Tablero(filas: int, columnas: int, minas: int ):&lt;/p&gt;&lt;p style=&quot;margin:0px;margin-left:4px;&quot;&gt;+ getGrafo(): Grafo&lt;/p&gt;&lt;p style=&quot;margin:0px;margin-left:4px;&quot;&gt;+ setGrafo(grafo:&amp;nbsp;Grafo): void&lt;/p&gt;&lt;p style=&quot;margin:0px;margin-left:4px;&quot;&gt;&lt;br&gt;&lt;/p&gt;&lt;p style=&quot;margin:0px;margin-left:4px;&quot;&gt;&lt;br&gt;&amp;nbsp;&amp;nbsp;&amp;nbsp; &lt;br&gt;&lt;/p&gt;" style="verticalAlign=top;align=left;overflow=fill;html=1;whiteSpace=wrap;" vertex="1" parent="1">
          <mxGeometry x="1140" y="-110" width="250" height="125" as="geometry" />
        </mxCell>
        <mxCell id="TNqC-9oh-vg7aei-fuEC-3" value="&lt;p style=&quot;margin:0px;margin-top:4px;text-align:center;&quot;&gt;&lt;b&gt;Class Cola&lt;/b&gt;&lt;/p&gt;&lt;hr size=&quot;1&quot; style=&quot;border-style:solid;&quot;&gt;&lt;div&gt;&amp;nbsp; + frente: NodoCola&lt;/div&gt;&lt;div&gt;&amp;nbsp; + fin: NodoCola&lt;/div&gt;&lt;br&gt;&lt;hr size=&quot;1&quot; style=&quot;border-style:solid;&quot;&gt;&lt;p style=&quot;margin:0px;margin-left:4px;&quot;&gt;+ Cola():&lt;/p&gt;&lt;p style=&quot;margin:0px;margin-left:4px;&quot;&gt;+ encolar(casilla: Casilla): void&lt;/p&gt;&lt;p style=&quot;margin:0px;margin-left:4px;&quot;&gt;+ desencolar(): Casilla&lt;/p&gt;&lt;p style=&quot;margin:0px;margin-left:4px;&quot;&gt;+ encolarNodo(nodo: Node): void&lt;/p&gt;&lt;p style=&quot;margin:0px;margin-left:4px;&quot;&gt;+ desencolarNodo(): Node&lt;/p&gt;&lt;p style=&quot;margin:0px;margin-left:4px;&quot;&gt;+ IsEmpty(): boolean&lt;/p&gt;&lt;p style=&quot;margin:0px;margin-left:4px;&quot;&gt;&lt;br&gt;&lt;/p&gt;&lt;p style=&quot;margin:0px;margin-left:4px;&quot;&gt;&lt;br&gt;&lt;/p&gt;&lt;p style=&quot;margin:0px;margin-left:4px;&quot;&gt;&lt;br&gt;&amp;nbsp;&amp;nbsp;&amp;nbsp; &lt;br&gt;&lt;/p&gt;" style="verticalAlign=top;align=left;overflow=fill;html=1;whiteSpace=wrap;" vertex="1" parent="1">
          <mxGeometry x="1070" y="510" width="260" height="190" as="geometry" />
        </mxCell>
        <mxCell id="TNqC-9oh-vg7aei-fuEC-5" value="&lt;p style=&quot;margin:0px;margin-top:4px;text-align:center;&quot;&gt;&lt;b&gt;Class Grafo&lt;/b&gt;&lt;/p&gt;&lt;hr size=&quot;1&quot; style=&quot;border-style:solid;&quot;&gt;&lt;div&gt;&amp;nbsp;+ casillas: Casilla[ ][ ]&lt;/div&gt;&lt;div&gt;&amp;nbsp;+ numMinas: int&lt;/div&gt;&lt;div&gt;&amp;nbsp;+ numFilas: int &lt;/div&gt;&lt;div&gt;&amp;nbsp;+ numColumnas: int&lt;/div&gt;&lt;div&gt;&lt;div&gt;&amp;nbsp;+ numCasillasAbiertas: int&lt;/div&gt;&lt;div&gt;&amp;nbsp;+ numeroBanderas: int &lt;/div&gt;&lt;div&gt;&amp;nbsp;+ contador: int&lt;/div&gt;&lt;div&gt;&amp;nbsp;+ visitCounter: int&lt;/div&gt;&lt;div&gt;&amp;nbsp;+ RecorridoBFS: boolean&lt;/div&gt;&lt;div&gt;&amp;nbsp;+ RecorridoDFS: boolean&lt;/div&gt;&lt;div&gt;&lt;div&gt;&amp;nbsp;+ graph: Graph&lt;/div&gt;&lt;div&gt;&lt;div&gt;&amp;nbsp;+ eventoPartidaPerdida: EventoPartidaPerdida&lt;/div&gt;&lt;div&gt;&amp;nbsp;+ eventoCasillaAbierta: EventoCasillaAbierta&lt;/div&gt;&lt;div&gt;&amp;nbsp;+ eventoBanderaAbierta: EventoBanderaAbierta&lt;/div&gt;&lt;div&gt;&lt;div&gt;&amp;nbsp;+ eventoBanderaCerrada: EventoBanderaCerrada&lt;/div&gt;&lt;div&gt;&amp;nbsp;+ eventoPartidaGanada: EventoPartidaGanada&lt;/div&gt;&lt;div&gt;&amp;nbsp;+ styleSheet: String&lt;/div&gt;&lt;div&gt;&lt;br&gt;&lt;/div&gt;&lt;/div&gt;&lt;/div&gt;&lt;/div&gt;&lt;/div&gt;&lt;hr size=&quot;1&quot; style=&quot;border-style:solid;&quot;&gt;&lt;div&gt;&amp;nbsp;+ Grafo(numFilas: int, numColumnas: int,&amp;nbsp;numMinas: int ) &lt;br&gt;&lt;/div&gt;&lt;div&gt;&amp;nbsp;+ inicializarGraphStream(): void&lt;/div&gt;&lt;div&gt;&amp;nbsp;+ sleep(): void&lt;/div&gt;&lt;div&gt;&amp;nbsp;+ getEachEdge(node: Node ): Edge[ ]&lt;/div&gt;&lt;div&gt;&amp;nbsp;+ empezarArbol(): void&lt;/div&gt;&lt;div&gt;&amp;nbsp;+ resetearArbol(): void&lt;/div&gt;&lt;div&gt;&amp;nbsp;+ colocarMinas(): void&lt;/div&gt;&lt;div&gt;&amp;nbsp;+ esMina(node: Node): void&lt;/div&gt;&lt;div&gt;&amp;nbsp;+ recorrerDFSArbol(source: Node): void&lt;/div&gt;&lt;div&gt;&amp;nbsp;+ recorrerBFSArbol(source: Node): void&lt;/div&gt;&lt;div&gt;&lt;div&gt;&amp;nbsp;+ recorrerBFS(posFila: int, posColumna: int ): void&lt;/div&gt;&lt;div&gt;&amp;nbsp;+ recorrerDFS(posFila: int, posColumna: int ): void&lt;/div&gt;&lt;div&gt;&amp;nbsp;+ inicializarCasilla(): void&lt;/div&gt;&lt;/div&gt;&lt;div&gt;&amp;nbsp;+ generarMinas(): void&lt;/div&gt;&lt;div&gt;&amp;nbsp;+ actualizarNumeroMinasAlrededor(): void&lt;/div&gt;&lt;div&gt;&amp;nbsp;+ obtenerCasillasAlrededor(posFila: int, posColumna: int ): ListaAdyacencia&lt;/div&gt;&lt;div&gt;&lt;div&gt;&lt;/div&gt;&lt;div&gt;&amp;nbsp;+ setEventoPartidaPerdida(eventoPartidaPerdida: EventoPartidaPerdida): void&lt;/div&gt;&lt;div&gt;&lt;div&gt;&lt;/div&gt;&lt;div&gt;&amp;nbsp;+ setEventoCasillaAbierta(eventoCasillaAbierta: EventoCasillaAbierta): void&lt;/div&gt;&lt;div&gt;&amp;nbsp;+ setEventoPartidaGanada(eventoPartidaGanada: EventoPartidaGanada): void&lt;/div&gt;&lt;div&gt;&amp;nbsp;+ setEventoBanderaAbierta(eventoBanderaAbierta: EventoBanderaAbierta): void&lt;/div&gt;&lt;div&gt;&amp;nbsp;+ setEventoBanderaCerrada(eventoBanderaCerrada: EventoBanderaCerrada): void&lt;/div&gt;&lt;div&gt;&amp;nbsp;+ obtenerCasillasConMinas(): ListaAdyacencia&lt;/div&gt;&lt;div&gt;&amp;nbsp;+ obtenerCasillas(): ListaAdyacencia&lt;/div&gt;&lt;div&gt;&amp;nbsp;+ seleccionarCasilla(posFila: int, posColumna: int ): void&lt;/div&gt;&lt;div&gt;&amp;nbsp;+ seleccionarBandera(posFila: int, posColumna: int ): void&lt;/div&gt;&lt;div&gt;&amp;nbsp;+ marcarCasillaAbierta(posFila: int, posColumna: int ): void&lt;/div&gt;&lt;div&gt;&amp;nbsp;+ PartidaGanada(): boolean&lt;/div&gt;&lt;div&gt;&lt;p style=&quot;margin:0px;margin-left:4px;&quot;&gt;+ isRecorridoBFS(): boolean&lt;/p&gt;&lt;p style=&quot;margin:0px;margin-left:4px;&quot;&gt;+ setRecorridoBFS(RecorridoBFS:&amp;nbsp;boolean): void&lt;/p&gt;&lt;p style=&quot;margin:0px;margin-left:4px;&quot;&gt;+ isRecorridoDFS(): boolean&lt;/p&gt;&lt;p style=&quot;margin:0px;margin-left:4px;&quot;&gt;+ setRecorridoDFS(RecorridoDFS:&amp;nbsp;boolean): void&lt;/p&gt;&lt;p style=&quot;margin:0px;margin-left:4px;&quot;&gt;&lt;br&gt;&lt;/p&gt;&lt;br&gt;&lt;/div&gt;&lt;div&gt;&lt;br&gt;&lt;/div&gt;&lt;br&gt;&lt;/div&gt;&lt;br&gt;&lt;/div&gt;&lt;div&gt;&lt;br&gt;&lt;/div&gt;&lt;div&gt;&lt;br&gt;&lt;div&gt;&lt;br&gt;&lt;/div&gt;&lt;div&gt;&lt;br&gt;&lt;/div&gt;&lt;br&gt;&lt;/div&gt;&lt;div&gt;&lt;br&gt;&lt;/div&gt;&lt;p style=&quot;margin:0px;margin-left:4px;&quot;&gt;&lt;br&gt;&lt;/p&gt;&lt;p style=&quot;margin:0px;margin-left:4px;&quot;&gt;&lt;br&gt;&lt;/p&gt;&lt;p style=&quot;margin:0px;margin-left:4px;&quot;&gt;&lt;br&gt;&lt;/p&gt;&lt;p style=&quot;margin:0px;margin-left:4px;&quot;&gt;&lt;br&gt;&lt;/p&gt;&lt;p style=&quot;margin:0px;margin-left:4px;&quot;&gt;&lt;br&gt;&lt;/p&gt;&lt;p style=&quot;margin:0px;margin-left:4px;&quot;&gt;&lt;br&gt;&lt;/p&gt;&lt;p style=&quot;margin:0px;margin-left:4px;&quot;&gt;&lt;br&gt;&lt;/p&gt;&lt;p style=&quot;margin:0px;margin-left:4px;&quot;&gt;&amp;nbsp;&amp;nbsp;&amp;nbsp; &lt;br&gt;&lt;/p&gt;" style="verticalAlign=top;align=left;overflow=fill;html=1;whiteSpace=wrap;" vertex="1" parent="1">
          <mxGeometry x="570" y="45" width="460" height="765" as="geometry" />
        </mxCell>
        <mxCell id="TNqC-9oh-vg7aei-fuEC-7" value="&lt;p style=&quot;margin:0px;margin-top:4px;text-align:center;&quot;&gt;&lt;b&gt;Class ListaAdyacencia&lt;/b&gt;&lt;/p&gt;&lt;hr size=&quot;1&quot; style=&quot;border-style:solid;&quot;&gt;&lt;div&gt;&amp;nbsp; + valor: Casilla&lt;/div&gt;&lt;div&gt;&amp;nbsp; + cabeza: NodoAdyacencia&lt;/div&gt;&lt;div&gt;&amp;nbsp; + cola: NodoAdyacencia&lt;/div&gt;&lt;div&gt;&amp;nbsp;&lt;/div&gt;&lt;hr size=&quot;1&quot; style=&quot;border-style:solid;&quot;&gt;&lt;p style=&quot;margin:0px;margin-left:4px;&quot;&gt;+ ListaAdyacencia(valor: Casilla ):&lt;/p&gt;&lt;p style=&quot;margin:0px;margin-left:4px;&quot;&gt;+ ListaAdyacencia():&lt;/p&gt;&lt;p style=&quot;margin:0px;margin-left:4px;&quot;&gt;+ agregarVecino(vecino: Casilla): void&lt;/p&gt;&lt;p style=&quot;margin:0px;margin-left:4px;&quot;&gt;+ contieneMinaArbol(valor: String): boolean&lt;/p&gt;&lt;p style=&quot;margin:0px;margin-left:4px;&quot;&gt;+ IsEmpty(): boolean&lt;/p&gt;&lt;p style=&quot;margin:0px;margin-left:4px;&quot;&gt;&lt;br&gt;&lt;/p&gt;&lt;p style=&quot;margin:0px;margin-left:4px;&quot;&gt;&lt;br&gt;&lt;/p&gt;&lt;p style=&quot;margin:0px;margin-left:4px;&quot;&gt;&lt;br&gt;&amp;nbsp;&amp;nbsp;&amp;nbsp; &lt;br&gt;&lt;/p&gt;" style="verticalAlign=top;align=left;overflow=fill;html=1;whiteSpace=wrap;" vertex="1" parent="1">
          <mxGeometry x="1070" y="720" width="260" height="200" as="geometry" />
        </mxCell>
        <mxCell id="TNqC-9oh-vg7aei-fuEC-8" value="&lt;p style=&quot;margin:0px;margin-top:4px;text-align:center;&quot;&gt;&lt;b&gt;Class NodoAdyacencia&lt;/b&gt;&lt;/p&gt;&lt;hr size=&quot;1&quot; style=&quot;border-style:solid;&quot;&gt;&lt;div&gt;&amp;nbsp; + valor: Casilla&lt;/div&gt;&lt;div&gt;&amp;nbsp; + siguiente: NodoAdyacencia&lt;/div&gt;&lt;div&gt;&amp;nbsp;&lt;/div&gt;&lt;hr size=&quot;1&quot; style=&quot;border-style:solid;&quot;&gt;&lt;p style=&quot;margin:0px;margin-left:4px;&quot;&gt;+ NodoAdyacencia(valor: Casilla ):&lt;/p&gt;" style="verticalAlign=top;align=left;overflow=fill;html=1;whiteSpace=wrap;" vertex="1" parent="1">
          <mxGeometry x="760" y="950" width="260" height="120" as="geometry" />
        </mxCell>
        <mxCell id="TNqC-9oh-vg7aei-fuEC-10" value="&lt;p style=&quot;margin:0px;margin-top:4px;text-align:center;&quot;&gt;&lt;b&gt;Class NodoCola&lt;/b&gt;&lt;/p&gt;&lt;hr size=&quot;1&quot; style=&quot;border-style:solid;&quot;&gt;&lt;div&gt;&amp;nbsp; + casilla: Casilla&lt;/div&gt;&lt;div&gt;&amp;nbsp; + nodo: Node&lt;/div&gt;&lt;div&gt;&amp;nbsp; + pNext: NodoCola&lt;/div&gt;&lt;div&gt;&lt;br&gt;&lt;/div&gt;&lt;hr size=&quot;1&quot; style=&quot;border-style:solid;&quot;&gt;&lt;p style=&quot;margin:0px;margin-left:4px;&quot;&gt;+ NodoCola(casilla: Casilla ):&lt;/p&gt;&lt;p style=&quot;margin:0px;margin-left:4px;&quot;&gt;+ NodoCola(nodo: Node ):&lt;/p&gt;&lt;p style=&quot;margin:0px;margin-left:4px;&quot;&gt;&lt;br&gt;&lt;/p&gt;&lt;p style=&quot;margin:0px;margin-left:4px;&quot;&gt;&lt;br&gt;&lt;/p&gt;&lt;p style=&quot;margin:0px;margin-left:4px;&quot;&gt;&lt;br&gt;&lt;/p&gt;" style="verticalAlign=top;align=left;overflow=fill;html=1;whiteSpace=wrap;" vertex="1" parent="1">
          <mxGeometry x="1060" y="950" width="260" height="150" as="geometry" />
        </mxCell>
        <mxCell id="TNqC-9oh-vg7aei-fuEC-11" value="&lt;p style=&quot;margin:0px;margin-top:4px;text-align:center;&quot;&gt;&lt;b&gt;Class NodoPila&lt;/b&gt;&lt;/p&gt;&lt;hr size=&quot;1&quot; style=&quot;border-style:solid;&quot;&gt;&lt;div&gt;&amp;nbsp; + casilla: Casilla&lt;/div&gt;&lt;div&gt;&amp;nbsp; + nodo: Node&lt;/div&gt;&lt;div&gt;&amp;nbsp; + pNext: NodoCola&lt;/div&gt;&lt;div&gt;&lt;br&gt;&lt;/div&gt;&lt;hr size=&quot;1&quot; style=&quot;border-style:solid;&quot;&gt;&lt;p style=&quot;margin:0px;margin-left:4px;&quot;&gt;+ NodoPila(casilla: Casilla ):&lt;/p&gt;&lt;p style=&quot;margin:0px;margin-left:4px;&quot;&gt;+ NodoPila(nodo: Node ):&lt;/p&gt;&lt;p style=&quot;margin:0px;margin-left:4px;&quot;&gt;&lt;br&gt;&lt;/p&gt;&lt;p style=&quot;margin:0px;margin-left:4px;&quot;&gt;&lt;br&gt;&lt;/p&gt;&lt;p style=&quot;margin:0px;margin-left:4px;&quot;&gt;&lt;br&gt;&lt;/p&gt;" style="verticalAlign=top;align=left;overflow=fill;html=1;whiteSpace=wrap;" vertex="1" parent="1">
          <mxGeometry x="1360" y="950" width="260" height="150" as="geometry" />
        </mxCell>
        <mxCell id="TNqC-9oh-vg7aei-fuEC-12" value="&lt;p style=&quot;margin:0px;margin-top:4px;text-align:center;&quot;&gt;&lt;b&gt;Class Pila&lt;/b&gt;&lt;/p&gt;&lt;hr size=&quot;1&quot; style=&quot;border-style:solid;&quot;&gt;&lt;div&gt;&amp;nbsp; + cima: NodoPila&lt;/div&gt;&lt;div&gt;&lt;br&gt;&lt;/div&gt;&lt;hr size=&quot;1&quot; style=&quot;border-style:solid;&quot;&gt;&lt;p style=&quot;margin:0px;margin-left:4px;&quot;&gt;+&amp;nbsp;Pila():&lt;/p&gt;&lt;p style=&quot;margin:0px;margin-left:4px;&quot;&gt;+ apilar(casilla: Casilla): void&lt;/p&gt;&lt;p style=&quot;margin:0px;margin-left:4px;&quot;&gt;+ desapilar(): Casilla&lt;/p&gt;&lt;p style=&quot;margin:0px;margin-left:4px;&quot;&gt;+ apilarNodo(nodo: Node): void&lt;/p&gt;&lt;p style=&quot;margin:0px;margin-left:4px;&quot;&gt;+ desapilarNodo(): Node&lt;/p&gt;&lt;p style=&quot;margin:0px;margin-left:4px;&quot;&gt;+ IsEmpty(): boolean&lt;/p&gt;&lt;p style=&quot;margin:0px;margin-left:4px;&quot;&gt;&lt;br&gt;&lt;/p&gt;&lt;p style=&quot;margin:0px;margin-left:4px;&quot;&gt;&lt;br&gt;&lt;/p&gt;&lt;p style=&quot;margin:0px;margin-left:4px;&quot;&gt;&lt;br&gt;&amp;nbsp;&amp;nbsp;&amp;nbsp; &lt;br&gt;&lt;/p&gt;" style="verticalAlign=top;align=left;overflow=fill;html=1;whiteSpace=wrap;" vertex="1" parent="1">
          <mxGeometry x="1360" y="510" width="260" height="190" as="geometry" />
        </mxCell>
        <mxCell id="TNqC-9oh-vg7aei-fuEC-13" value="&lt;p style=&quot;margin:0px;margin-top:4px;text-align:center;&quot;&gt;&lt;b&gt;Interface EventoBanderaCerrada&lt;/b&gt;&lt;/p&gt;&lt;hr size=&quot;1&quot; style=&quot;border-style:solid;&quot;&gt;&lt;div&gt;&lt;br&gt;&lt;/div&gt;&lt;hr size=&quot;1&quot; style=&quot;border-style:solid;&quot;&gt;&lt;p style=&quot;margin:0px;margin-left:4px;&quot;&gt;+ ejecutar(casilla: Casilla ):void&lt;/p&gt;&lt;p style=&quot;margin:0px;margin-left:4px;&quot;&gt;&lt;br&gt;&lt;/p&gt;&lt;p style=&quot;margin:0px;margin-left:4px;&quot;&gt;&lt;br&gt;&lt;/p&gt;&lt;p style=&quot;margin:0px;margin-left:4px;&quot;&gt;&lt;br&gt;&amp;nbsp;&amp;nbsp;&amp;nbsp; &lt;br&gt;&lt;/p&gt;" style="verticalAlign=top;align=left;overflow=fill;html=1;whiteSpace=wrap;" vertex="1" parent="1">
          <mxGeometry x="740" y="1140" width="200" height="90" as="geometry" />
        </mxCell>
        <mxCell id="TNqC-9oh-vg7aei-fuEC-14" value="&lt;p style=&quot;margin:0px;margin-top:4px;text-align:center;&quot;&gt;&lt;b&gt;Interface EventoCasillaAbierta&lt;/b&gt;&lt;/p&gt;&lt;hr size=&quot;1&quot; style=&quot;border-style:solid;&quot;&gt;&lt;div&gt;&lt;br&gt;&lt;/div&gt;&lt;hr size=&quot;1&quot; style=&quot;border-style:solid;&quot;&gt;&lt;p style=&quot;margin:0px;margin-left:4px;&quot;&gt;+ ejecutar(casilla: Casilla ):void&lt;/p&gt;&lt;p style=&quot;margin:0px;margin-left:4px;&quot;&gt;&lt;br&gt;&lt;/p&gt;&lt;p style=&quot;margin:0px;margin-left:4px;&quot;&gt;&lt;br&gt;&lt;/p&gt;&lt;p style=&quot;margin:0px;margin-left:4px;&quot;&gt;&lt;br&gt;&amp;nbsp;&amp;nbsp;&amp;nbsp; &lt;br&gt;&lt;/p&gt;" style="verticalAlign=top;align=left;overflow=fill;html=1;whiteSpace=wrap;" vertex="1" parent="1">
          <mxGeometry x="960" y="1140" width="200" height="90" as="geometry" />
        </mxCell>
        <mxCell id="TNqC-9oh-vg7aei-fuEC-15" value="&lt;p style=&quot;margin:0px;margin-top:4px;text-align:center;&quot;&gt;&lt;b&gt;Interface EventoBanderaAbierta&lt;/b&gt;&lt;/p&gt;&lt;hr size=&quot;1&quot; style=&quot;border-style:solid;&quot;&gt;&lt;div&gt;&lt;br&gt;&lt;/div&gt;&lt;hr size=&quot;1&quot; style=&quot;border-style:solid;&quot;&gt;&lt;p style=&quot;margin:0px;margin-left:4px;&quot;&gt;+ ejecutar(casilla: Casilla ):void&lt;/p&gt;&lt;p style=&quot;margin:0px;margin-left:4px;&quot;&gt;&lt;br&gt;&lt;/p&gt;&lt;p style=&quot;margin:0px;margin-left:4px;&quot;&gt;&lt;br&gt;&lt;/p&gt;&lt;p style=&quot;margin:0px;margin-left:4px;&quot;&gt;&lt;br&gt;&amp;nbsp;&amp;nbsp;&amp;nbsp; &lt;br&gt;&lt;/p&gt;" style="verticalAlign=top;align=left;overflow=fill;html=1;whiteSpace=wrap;" vertex="1" parent="1">
          <mxGeometry x="510" y="1140" width="200" height="90" as="geometry" />
        </mxCell>
        <mxCell id="TNqC-9oh-vg7aei-fuEC-16" value="&lt;p style=&quot;margin:0px;margin-top:4px;text-align:center;&quot;&gt;&lt;b&gt;Interface EventoPartidaPerdida&lt;/b&gt;&lt;/p&gt;&lt;hr size=&quot;1&quot; style=&quot;border-style:solid;&quot;&gt;&lt;div&gt;&lt;br&gt;&lt;/div&gt;&lt;hr size=&quot;1&quot; style=&quot;border-style:solid;&quot;&gt;&lt;p style=&quot;margin:0px;margin-left:4px;&quot;&gt;+ ejecutar(lista: ListaAdyacencia ):void&lt;/p&gt;&lt;p style=&quot;margin:0px;margin-left:4px;&quot;&gt;&lt;br&gt;&lt;/p&gt;&lt;p style=&quot;margin:0px;margin-left:4px;&quot;&gt;&lt;br&gt;&lt;/p&gt;&lt;p style=&quot;margin:0px;margin-left:4px;&quot;&gt;&lt;br&gt;&amp;nbsp;&amp;nbsp;&amp;nbsp; &lt;br&gt;&lt;/p&gt;" style="verticalAlign=top;align=left;overflow=fill;html=1;whiteSpace=wrap;" vertex="1" parent="1">
          <mxGeometry x="1460" y="1140" width="230" height="90" as="geometry" />
        </mxCell>
        <mxCell id="TNqC-9oh-vg7aei-fuEC-17" value="&lt;p style=&quot;margin:0px;margin-top:4px;text-align:center;&quot;&gt;&lt;b&gt;Interface EventoPartidaGanada&lt;/b&gt;&lt;/p&gt;&lt;hr size=&quot;1&quot; style=&quot;border-style:solid;&quot;&gt;&lt;div&gt;&lt;br&gt;&lt;/div&gt;&lt;hr size=&quot;1&quot; style=&quot;border-style:solid;&quot;&gt;&lt;p style=&quot;margin:0px;margin-left:4px;&quot;&gt;+ ejecutar(lista: ListaAdyacencia):void&lt;/p&gt;&lt;p style=&quot;margin:0px;margin-left:4px;&quot;&gt;&lt;br&gt;&lt;/p&gt;&lt;p style=&quot;margin:0px;margin-left:4px;&quot;&gt;&lt;br&gt;&lt;/p&gt;&lt;p style=&quot;margin:0px;margin-left:4px;&quot;&gt;&lt;br&gt;&amp;nbsp;&amp;nbsp;&amp;nbsp; &lt;br&gt;&lt;/p&gt;" style="verticalAlign=top;align=left;overflow=fill;html=1;whiteSpace=wrap;" vertex="1" parent="1">
          <mxGeometry x="1190" y="1140" width="230" height="90" as="geometry" />
        </mxCell>
        <mxCell id="TNqC-9oh-vg7aei-fuEC-18" value="&lt;p style=&quot;margin:0px;margin-top:4px;text-align:center;&quot;&gt;&lt;b&gt;Class main&lt;/b&gt;&lt;/p&gt;&lt;hr size=&quot;1&quot; style=&quot;border-style:solid;&quot;&gt;&lt;div&gt;&lt;br&gt;&lt;/div&gt;&lt;hr size=&quot;1&quot; style=&quot;border-style:solid;&quot;&gt;&lt;p style=&quot;margin:0px;margin-left:4px;&quot;&gt;+ main(args: String[ ] ): static void&lt;/p&gt;&lt;p style=&quot;margin:0px;margin-left:4px;&quot;&gt;&lt;br&gt;&lt;/p&gt;&lt;p style=&quot;margin:0px;margin-left:4px;&quot;&gt;&lt;br&gt;&lt;/p&gt;&lt;p style=&quot;margin:0px;margin-left:4px;&quot;&gt;&lt;br&gt;&amp;nbsp;&amp;nbsp;&amp;nbsp; &lt;br&gt;&lt;/p&gt;" style="verticalAlign=top;align=left;overflow=fill;html=1;whiteSpace=wrap;" vertex="1" parent="1">
          <mxGeometry x="720" y="1510" width="200" height="90" as="geometry" />
        </mxCell>
      </root>
    </mxGraphModel>
  </diagram>
</mxfile>
